{
	"asset":{
		"generator":"Khronos glTF Blender I/O v4.1.63",
		"version":"2.0"
	},
	"scene":0,
	"scenes":[
		{
			"name":"Scene",
			"nodes":[
				0
			]
		}
	],
	"nodes":[
		{
			"mesh":0,
			"name":"bed"
		}
	],
	"materials":[
		{
			"doubleSided":true,
			"name":"bed_Baked",
			"pbrMetallicRoughness":{
				"baseColorTexture":{
					"index":0
				},
				"metallicFactor":0,
				"roughnessFactor":0.5
			}
		}
	],
	"meshes":[
		{
			"name":"Room.001",
			"primitives":[
				{
					"attributes":{
						"POSITION":0,
						"NORMAL":1,
						"TEXCOORD_0":2
					},
					"indices":3,
					"material":0
				}
			]
		}
	],
	"textures":[
		{
			"sampler":0,
			"source":0
		}
	],
	"images":[
		{
			"mimeType":"image/png",
			"name":"Image",
			"uri":"textures/Image.png"
		}
	],
	"accessors":[
		{
			"bufferView":0,
			"componentType":5126,
			"count":15348,
			"max":[
				-8.446836471557617,
				5.232198238372803,
				9.068123817443848
			],
			"min":[
				-17.35181427001953,
				0.04431680589914322,
				-4.821718215942383
			],
			"type":"VEC3"
		},
		{
			"bufferView":1,
			"componentType":5126,
			"count":15348,
			"type":"VEC3"
		},
		{
			"bufferView":2,
			"componentType":5126,
			"count":15348,
			"type":"VEC2"
		},
		{
			"bufferView":3,
			"componentType":5123,
			"count":29670,
			"type":"SCALAR"
		}
	],
	"bufferViews":[
		{
			"buffer":0,
			"byteLength":184176,
			"byteOffset":0,
			"target":34962
		},
		{
			"buffer":0,
			"byteLength":184176,
			"byteOffset":184176,
			"target":34962
		},
		{
			"buffer":0,
			"byteLength":122784,
			"byteOffset":368352,
			"target":34962
		},
		{
			"buffer":0,
			"byteLength":59340,
			"byteOffset":491136,
			"target":34963
		}
	],
	"samplers":[
		{
			"magFilter":9729,
			"minFilter":9987
		}
	],
	"buffers":[
		{
			"byteLength":550476,
			"uri":"bed.bin"
		}
	]
}
