{
	"asset":{
		"generator":"Khronos glTF Blender I/O v4.4.56",
		"version":"2.0"
	},
	"scene":0,
	"scenes":[
		{
			"name":"Scene",
			"nodes":[
				0
			]
		}
	],
	"nodes":[
		{
			"mesh":0,
			"name":"chair_rug_pillows"
		}
	],
	"materials":[
		{
			"doubleSided":true,
			"name":"tatami_Baked.004",
			"pbrMetallicRoughness":{
				"baseColorTexture":{
					"index":0
				},
				"metallicFactor":0,
				"roughnessFactor":0.5
			}
		}
	],
	"meshes":[
		{
			"name":"Plane.008",
			"primitives":[
				{
					"attributes":{
						"POSITION":0,
						"NORMAL":1,
						"TEXCOORD_0":2
					},
					"indices":3,
					"material":0
				}
			]
		}
	],
	"textures":[
		{
			"sampler":0,
			"source":0
		}
	],
	"images":[
		{
			"mimeType":"image/png",
			"name":"tatami_Bake1_PBR_Diffuse.1001",
			"uri":"tatami_Bake1_PBR_Diffuse_1001.png"
		}
	],
	"accessors":[
		{
			"bufferView":0,
			"componentType":5126,
			"count":12608,
			"max":[
				3.1176834106445312,
				7.610934257507324,
				14.006900787353516
			],
			"min":[
				-11.069915771484375,
				-0.12027981877326965,
				-1.8873934745788574
			],
			"type":"VEC3"
		},
		{
			"bufferView":1,
			"componentType":5126,
			"count":12608,
			"type":"VEC3"
		},
		{
			"bufferView":2,
			"componentType":5126,
			"count":12608,
			"type":"VEC2"
		},
		{
			"bufferView":3,
			"componentType":5123,
			"count":36783,
			"type":"SCALAR"
		}
	],
	"bufferViews":[
		{
			"buffer":0,
			"byteLength":151296,
			"byteOffset":0,
			"target":34962
		},
		{
			"buffer":0,
			"byteLength":151296,
			"byteOffset":151296,
			"target":34962
		},
		{
			"buffer":0,
			"byteLength":100864,
			"byteOffset":302592,
			"target":34962
		},
		{
			"buffer":0,
			"byteLength":73566,
			"byteOffset":403456,
			"target":34963
		}
	],
	"samplers":[
		{
			"magFilter":9729,
			"minFilter":9987
		}
	],
	"buffers":[
		{
			"byteLength":477024,
			"uri":"chair.bin"
		}
	]
}
