{
	"asset":{
		"generator":"Khronos glTF Blender I/O v4.1.63",
		"version":"2.0"
	},
	"scene":0,
	"scenes":[
		{
			"name":"Scene",
			"nodes":[
				0
			]
		}
	],
	"nodes":[
		{
			"mesh":0,
			"name":"left_wall"
		}
	],
	"materials":[
		{
			"doubleSided":true,
			"emissiveFactor":[
				1,
				1,
				1
			],
			"emissiveTexture":{
				"index":0
			},
			"name":"board_Baked",
			"pbrMetallicRoughness":{
				"baseColorTexture":{
					"index":1
				},
				"metallicFactor":0,
				"roughnessFactor":0.5
			}
		}
	],
	"meshes":[
		{
			"name":"Plane.007",
			"primitives":[
				{
					"attributes":{
						"POSITION":0,
						"NORMAL":1,
						"TEXCOORD_0":2
					},
					"indices":3,
					"material":0
				}
			]
		}
	],
	"textures":[
		{
			"sampler":0,
			"source":0
		},
		{
			"sampler":0,
			"source":1
		}
	],
	"images":[
		{
			"mimeType":"image/png",
			"name":"board_Bake1_PBR_Emission_map",
			"uri":"textures/board_Bake1_PBR_Emission_map.png"
		},
		{
			"mimeType":"image/png",
			"name":"board_Bake1_PBR_Diffuse",
			"uri":"textures/board_Bake1_PBR_Diffuse.png"
		}
	],
	"accessors":[
		{
			"bufferView":0,
			"componentType":5126,
			"count":29965,
			"max":[
				-15.85505485534668,
				15.380875587463379,
				13.166695594787598
			],
			"min":[
				-17.307449340820312,
				2.586876392364502,
				-2.8770968914031982
			],
			"type":"VEC3"
		},
		{
			"bufferView":1,
			"componentType":5126,
			"count":29965,
			"type":"VEC3"
		},
		{
			"bufferView":2,
			"componentType":5126,
			"count":29965,
			"type":"VEC2"
		},
		{
			"bufferView":3,
			"componentType":5123,
			"count":68916,
			"type":"SCALAR"
		}
	],
	"bufferViews":[
		{
			"buffer":0,
			"byteLength":359580,
			"byteOffset":0,
			"target":34962
		},
		{
			"buffer":0,
			"byteLength":359580,
			"byteOffset":359580,
			"target":34962
		},
		{
			"buffer":0,
			"byteLength":239720,
			"byteOffset":719160,
			"target":34962
		},
		{
			"buffer":0,
			"byteLength":137832,
			"byteOffset":958880,
			"target":34963
		}
	],
	"samplers":[
		{
			"magFilter":9729,
			"minFilter":9987
		}
	],
	"buffers":[
		{
			"byteLength":1096712,
			"uri":"left_wall.bin"
		}
	]
}
